<svg width="25" height="25" viewBox="0 0 25 25" fill="none" xmlns="http://www.w3.org/2000/svg">
<g clip-path="url(#clip0_214_914)">
<path d="M23.621 9.56911L16.036 1.98311C15.0973 1.0471 13.8257 0.521484 12.5 0.521484C11.1743 0.521484 9.90277 1.0471 8.96401 1.98311L1.37901 9.56911C1.09944 9.8469 0.877782 10.1774 0.726895 10.5415C0.576007 10.9056 0.49889 11.296 0.500012 11.6901V21.5071C0.500012 22.3028 0.816083 23.0658 1.37869 23.6284C1.9413 24.191 2.70436 24.5071 3.50001 24.5071H21.5C22.2957 24.5071 23.0587 24.191 23.6213 23.6284C24.1839 23.0658 24.5 22.3028 24.5 21.5071V11.6901C24.5011 11.296 24.424 10.9056 24.2731 10.5415C24.1222 10.1774 23.9006 9.8469 23.621 9.56911ZM15.5 22.5071H9.50001V18.5731C9.50001 17.7775 9.81608 17.0144 10.3787 16.4518C10.9413 15.8892 11.7044 15.5731 12.5 15.5731C13.2957 15.5731 14.0587 15.8892 14.6213 16.4518C15.1839 17.0144 15.5 17.7775 15.5 18.5731V22.5071ZM22.5 21.5071C22.5 21.7723 22.3947 22.0267 22.2071 22.2142C22.0196 22.4018 21.7652 22.5071 21.5 22.5071H17.5V18.5731C17.5 17.247 16.9732 15.9753 16.0355 15.0376C15.0979 14.0999 13.8261 13.5731 12.5 13.5731C11.1739 13.5731 9.90216 14.0999 8.96448 15.0376C8.0268 15.9753 7.50001 17.247 7.50001 18.5731V22.5071H3.50001C3.2348 22.5071 2.98044 22.4018 2.79291 22.2142C2.60537 22.0267 2.50001 21.7723 2.50001 21.5071V11.6901C2.50094 11.4251 2.6062 11.1711 2.79301 10.9831L10.378 3.40011C10.9417 2.83904 11.7047 2.52405 12.5 2.52405C13.2953 2.52405 14.0583 2.83904 14.622 3.40011L22.207 10.9861C22.3931 11.1734 22.4983 11.4261 22.5 11.6901V21.5071Z" fill="#707880"/>
</g>
<defs>
<clipPath id="clip0_214_914">
<rect width="24" height="24" fill="white" transform="translate(0.5 0.5)"/>
</clipPath>
</defs>
</svg>
