<svg width="25" height="25" viewBox="0 0 25 25" fill="none" xmlns="http://www.w3.org/2000/svg">
<g clip-path="url(#clip0_214_916)">
<path d="M23.5 22.5H3.5C3.23478 22.5 2.98043 22.3946 2.79289 22.2071C2.60536 22.0196 2.5 21.7652 2.5 21.5V1.5C2.5 1.23478 2.39464 0.98043 2.20711 0.792893C2.01957 0.605357 1.76522 0.5 1.5 0.5C1.23478 0.5 0.98043 0.605357 0.792893 0.792893C0.605357 0.98043 0.5 1.23478 0.5 1.5L0.5 21.5C0.5 22.2956 0.81607 23.0587 1.37868 23.6213C1.94129 24.1839 2.70435 24.5 3.5 24.5H23.5C23.7652 24.5 24.0196 24.3946 24.2071 24.2071C24.3946 24.0196 24.5 23.7652 24.5 23.5C24.5 23.2348 24.3946 22.9804 24.2071 22.7929C24.0196 22.6054 23.7652 22.5 23.5 22.5Z" fill="#D6D7E4"/>
<path d="M15.5 20.5C15.7652 20.5 16.0196 20.3946 16.2071 20.2071C16.3946 20.0196 16.5 19.7652 16.5 19.5V12.5C16.5 12.2348 16.3946 11.9804 16.2071 11.7929C16.0196 11.6054 15.7652 11.5 15.5 11.5C15.2348 11.5 14.9804 11.6054 14.7929 11.7929C14.6054 11.9804 14.5 12.2348 14.5 12.5V19.5C14.5 19.7652 14.6054 20.0196 14.7929 20.2071C14.9804 20.3946 15.2348 20.5 15.5 20.5Z" fill="#D6D7E4"/>
<path d="M7.5 20.5C7.76522 20.5 8.01957 20.3946 8.20711 20.2071C8.39464 20.0196 8.5 19.7652 8.5 19.5V12.5C8.5 12.2348 8.39464 11.9804 8.20711 11.7929C8.01957 11.6054 7.76522 11.5 7.5 11.5C7.23478 11.5 6.98043 11.6054 6.79289 11.7929C6.60536 11.9804 6.5 12.2348 6.5 12.5V19.5C6.5 19.7652 6.60536 20.0196 6.79289 20.2071C6.98043 20.3946 7.23478 20.5 7.5 20.5Z" fill="#D6D7E4"/>
<path d="M19.5 20.5C19.7652 20.5 20.0196 20.3946 20.2071 20.2071C20.3946 20.0196 20.5 19.7652 20.5 19.5V7.5C20.5 7.23478 20.3946 6.98043 20.2071 6.79289C20.0196 6.60536 19.7652 6.5 19.5 6.5C19.2348 6.5 18.9804 6.60536 18.7929 6.79289C18.6054 6.98043 18.5 7.23478 18.5 7.5V19.5C18.5 19.7652 18.6054 20.0196 18.7929 20.2071C18.9804 20.3946 19.2348 20.5 19.5 20.5Z" fill="#D6D7E4"/>
<path d="M11.5 20.5C11.7652 20.5 12.0196 20.3946 12.2071 20.2071C12.3946 20.0196 12.5 19.7652 12.5 19.5V7.5C12.5 7.23478 12.3946 6.98043 12.2071 6.79289C12.0196 6.60536 11.7652 6.5 11.5 6.5C11.2348 6.5 10.9804 6.60536 10.7929 6.79289C10.6054 6.98043 10.5 7.23478 10.5 7.5V19.5C10.5 19.7652 10.6054 20.0196 10.7929 20.2071C10.9804 20.3946 11.2348 20.5 11.5 20.5Z" fill="#D6D7E4"/>
</g>
<defs>
<clipPath id="clip0_214_916">
<rect width="24" height="24" fill="white" transform="translate(0.5 0.5)"/>
</clipPath>
</defs>
</svg>
