<svg width="25" height="24" viewBox="0 0 25 24" fill="none" xmlns="http://www.w3.org/2000/svg">
<g clip-path="url(#clip0_214_833)">
<path d="M12.5 12C13.6867 12 14.8467 11.6481 15.8334 10.9888C16.8201 10.3295 17.5892 9.39246 18.0433 8.2961C18.4974 7.19975 18.6162 5.99335 18.3847 4.82946C18.1532 3.66558 17.5818 2.59648 16.7426 1.75736C15.9035 0.918247 14.8344 0.346802 13.6705 0.115291C12.5067 -0.11622 11.3003 0.00259972 10.2039 0.456726C9.10754 0.910851 8.17047 1.67989 7.51118 2.66658C6.85189 3.65328 6.5 4.81331 6.5 6C6.50159 7.59081 7.13424 9.11602 8.25911 10.2409C9.38399 11.3658 10.9092 11.9984 12.5 12ZM12.5 2C13.2911 2 14.0645 2.2346 14.7223 2.67412C15.3801 3.11365 15.8928 3.73836 16.1955 4.46927C16.4983 5.20017 16.5775 6.00444 16.4231 6.78036C16.2688 7.55629 15.8878 8.26902 15.3284 8.82843C14.769 9.38784 14.0563 9.7688 13.2804 9.92314C12.5044 10.0775 11.7002 9.99827 10.9693 9.69552C10.2384 9.39277 9.61365 8.88008 9.17412 8.22228C8.7346 7.56449 8.5 6.79113 8.5 6C8.5 4.93914 8.92143 3.92172 9.67157 3.17158C10.4217 2.42143 11.4391 2 12.5 2Z" fill="#707880"/>
<path d="M12.5 14C10.1139 14.0026 7.82622 14.9517 6.13896 16.639C4.45171 18.3262 3.50265 20.6139 3.5 23C3.5 23.2652 3.60536 23.5196 3.79289 23.7071C3.98043 23.8946 4.23478 24 4.5 24C4.76522 24 5.01957 23.8946 5.20711 23.7071C5.39464 23.5196 5.5 23.2652 5.5 23C5.5 21.1435 6.2375 19.363 7.55025 18.0503C8.86301 16.7375 10.6435 16 12.5 16C14.3565 16 16.137 16.7375 17.4497 18.0503C18.7625 19.363 19.5 21.1435 19.5 23C19.5 23.2652 19.6054 23.5196 19.7929 23.7071C19.9804 23.8946 20.2348 24 20.5 24C20.7652 24 21.0196 23.8946 21.2071 23.7071C21.3946 23.5196 21.5 23.2652 21.5 23C21.4974 20.6139 20.5483 18.3262 18.861 16.639C17.1738 14.9517 14.8861 14.0026 12.5 14Z" fill="#707880"/>
</g>
<defs>
<clipPath id="clip0_214_833">
<rect width="24" height="24" fill="white" transform="translate(0.5)"/>
</clipPath>
</defs>
</svg>
